<?xml version="1.0" standalone="no"?>
<!DOCTYPE svg PUBLIC "-//W3C//DTD SVG 20010904//EN"
 "http://www.w3.org/TR/2001/REC-SVG-20010904/DTD/svg10.dtd">
<svg version="1.0" xmlns="http://www.w3.org/2000/svg"
 width="1600.000000pt" height="900.000000pt" viewBox="0 0 1600.000000 900.000000"
 preserveAspectRatio="xMidYMid meet">
<metadata>
Created by potrace 1.15, written by Peter Selinger 2001-2017
</metadata>
<g transform="translate(0.000000,900.000000) scale(0.100000,-0.100000)"
fill="#000000" stroke="none">
<path d="M3115 4119 c-49 -28 -58 -75 -26 -137 11 -20 173 -190 361 -377 364
-363 814 -818 1048 -1058 78 -81 149 -147 157 -147 8 0 46 30 83 68 38 37 185
180 327 317 142 138 331 321 419 409 89 87 172 162 185 167 54 21 52 57 51
-924 0 -499 2 -918 6 -932 6 -24 10 -25 76 -25 78 0 108 -11 108 -40 0 -15 7
-20 25 -20 18 0 25 5 25 20 0 24 28 40 70 40 42 0 70 -16 70 -40 0 -17 7 -20
43 -20 l43 0 12 58 c9 44 12 382 12 1340 l0 1281 -22 15 c-31 22 -432 23 -481
2 -18 -8 -139 -121 -270 -252 -131 -132 -248 -249 -260 -261 -12 -12 -127
-126 -255 -255 -128 -128 -239 -236 -247 -241 -9 -4 -23 -6 -33 -3 -9 3 -103
94 -207 203 -105 108 -247 254 -318 325 -70 70 -135 140 -145 156 -9 15 -46
54 -82 85 -36 32 -109 101 -162 155 l-97 97 -248 2 c-169 2 -254 -1 -268 -8z"/>
<path d="M9274 4115 c4 -10 -1 -15 -14 -15 -16 0 -20 -7 -20 -30 0 -26 -6 -33
-47 -52 -59 -28 -203 -170 -203 -201 0 -12 -9 -35 -20 -52 -17 -25 -20 -47
-20 -137 0 -115 -4 -138 -26 -138 -8 0 -14 -7 -14 -15 0 -11 7 -13 29 -9 25 5
30 2 40 -27 6 -17 11 -40 11 -51 0 -10 6 -21 14 -24 7 -3 28 -25 45 -49 36
-50 95 -94 186 -140 59 -29 63 -29 215 -30 l155 0 70 33 c39 19 79 38 90 43
39 19 44 42 46 205 2 142 0 159 -17 171 -24 17 -96 17 -141 -2 -19 -8 -44 -15
-55 -15 -19 0 -20 -6 -17 -132 l4 -132 -45 -14 c-144 -43 -327 55 -379 204
-11 33 -21 80 -21 105 0 66 39 160 87 213 43 47 69 57 79 31 4 -8 13 -15 22
-15 12 0 13 3 4 12 -41 41 29 73 145 65 63 -4 88 -10 109 -26 15 -11 32 -21
39 -21 7 0 24 -9 38 -20 14 -11 33 -20 44 -20 23 0 103 77 103 99 0 23 -44 63
-97 90 -36 18 -43 26 -43 51 0 23 -4 30 -20 30 -12 0 -20 7 -20 18 -1 10 -6 5
-14 -13 l-12 -30 -153 -1 -152 0 -6 28 c-3 15 -10 28 -15 28 -6 0 -8 -7 -4
-15z"/>
<path d="M13880 4106 c0 -14 -5 -28 -11 -32 -7 -4 -108 -6 -226 -5 -153 2
-219 -1 -229 -10 -12 -10 -14 -82 -14 -450 l0 -439 23 -13 c17 -10 75 -11 267
-7 221 6 252 8 315 30 39 12 75 26 81 29 48 26 98 68 137 114 40 46 50 67 72
153 15 54 28 100 30 102 2 2 8 -6 15 -17 20 -38 30 -22 30 49 0 67 -13 93 -26
53 -3 -10 -8 -25 -11 -33 -3 -8 -16 26 -28 75 -32 127 -36 135 -103 201 -94
94 -121 114 -150 114 -42 0 -75 27 -68 56 6 23 4 24 -43 24 -41 0 -49 3 -45
15 4 8 1 15 -5 15 -6 0 -11 -11 -11 -24z m45 -216 c75 -27 85 -35 85 -71 0
-26 4 -29 30 -29 34 0 45 -18 75 -127 17 -58 17 -64 0 -115 -9 -29 -24 -69
-34 -88 -14 -30 -21 -35 -49 -32 -30 2 -32 0 -32 -33 0 -24 -6 -37 -19 -45
-30 -15 -71 -13 -71 5 0 10 -10 15 -27 15 l-28 0 25 -20 c14 -10 21 -22 17
-26 -22 -23 -242 -32 -270 -11 -27 19 -27 70 1 82 22 10 22 12 22 210 0 198 0
200 -22 210 -32 14 -35 58 -7 86 21 21 28 22 133 16 76 -4 130 -13 171 -27z"/>
<path d="M6740 4052 l-23 -18 2 -425 c2 -371 4 -426 18 -441 20 -23 144 -26
162 -5 7 9 12 94 13 243 3 207 5 229 20 232 27 5 66 -29 79 -68 6 -19 17 -40
24 -45 7 -6 25 -34 41 -62 108 -193 125 -213 177 -213 34 0 63 30 105 109 18
32 39 64 47 71 8 7 15 18 15 24 0 6 20 41 44 78 25 37 47 76 51 86 3 11 15 27
25 37 40 36 45 11 50 -253 l5 -247 73 -3 c46 -2 79 2 88 9 12 9 14 85 14 450
l0 439 -26 10 c-29 11 -87 13 -122 4 -13 -4 -32 -23 -43 -43 -11 -20 -33 -56
-49 -81 -35 -55 -118 -196 -145 -249 -11 -22 -28 -48 -37 -58 -10 -11 -18 -26
-18 -35 0 -19 -35 -65 -60 -78 -26 -14 -50 -2 -50 26 0 13 -9 28 -20 34 -11 6
-29 28 -40 50 -11 21 -33 59 -50 83 -17 25 -37 61 -45 80 -7 18 -21 39 -29 46
-14 12 -62 90 -95 154 -26 52 -67 77 -126 77 -36 0 -60 -6 -75 -18z"/>
<path d="M8301 4057 c-14 -7 -30 -29 -38 -51 -7 -22 -19 -47 -27 -55 -7 -9
-17 -27 -21 -41 -4 -14 -18 -45 -31 -70 -13 -25 -24 -49 -24 -54 0 -5 -9 -27
-19 -50 -11 -23 -34 -75 -51 -116 -17 -41 -42 -97 -54 -125 -13 -27 -35 -75
-49 -105 -14 -30 -28 -66 -32 -80 -4 -13 -16 -36 -27 -50 -10 -14 -21 -42 -24
-62 -8 -47 10 -56 100 -49 l70 6 41 82 c24 46 48 90 55 98 11 13 44 15 224 13
l211 -3 22 -40 c30 -52 53 -102 53 -113 0 -5 8 -17 19 -26 15 -13 34 -16 97
-14 74 3 79 5 82 26 2 12 -13 57 -33 100 -47 97 -65 138 -105 232 -17 41 -42
98 -56 125 -13 28 -24 56 -24 63 0 6 -12 36 -27 64 -66 131 -73 147 -73 158 0
6 -11 28 -25 48 -14 20 -25 44 -25 54 0 31 -40 48 -115 48 -38 0 -81 -6 -94
-13z m145 -301 c19 -39 34 -77 34 -86 0 -8 12 -33 25 -55 29 -47 32 -81 8
-107 -23 -26 -223 -27 -248 -1 -21 21 -15 71 14 112 12 16 21 37 21 48 0 10
12 41 25 68 14 28 25 55 25 62 0 19 30 43 46 36 9 -3 31 -38 50 -77z"/>
<path d="M10043 4063 l-43 -4 0 -455 0 -454 109 0 c72 0 112 4 117 12 4 6 7
117 8 247 1 130 5 242 9 249 20 31 49 8 164 -126 65 -76 156 -185 203 -243
121 -148 109 -139 188 -139 40 0 73 5 80 12 9 9 12 123 12 450 l0 438 -26 10
c-36 14 -127 12 -147 -2 -15 -12 -17 -42 -18 -256 -2 -192 -5 -244 -16 -253
-22 -19 -57 3 -101 63 -42 57 -174 219 -247 303 -24 28 -58 69 -77 92 -51 63
-72 69 -215 56z"/>
<path d="M11132 4058 c-15 -15 -17 -874 -2 -898 7 -11 27 -14 87 -11 43 1 83
7 90 13 10 8 13 108 13 449 0 423 -1 439 -19 449 -27 14 -154 13 -169 -2z"/>
<path d="M11448 4059 c-21 -12 -26 -107 -6 -127 8 -8 49 -12 121 -12 59 0 117
-5 127 -10 41 -22 43 -41 41 -391 -3 -388 -7 -369 87 -369 31 0 81 3 110 6
l52 7 0 323 c0 314 -1 323 -20 329 -15 5 -20 15 -20 40 0 59 19 68 141 64 94
-4 109 -2 128 15 27 25 30 102 4 122 -23 17 -737 20 -765 3z"/>
<path d="M12367 4052 c-32 -35 -20 -570 15 -681 12 -40 57 -107 90 -137 12
-12 48 -35 78 -52 47 -26 69 -31 155 -37 170 -11 249 10 346 94 101 86 129
213 129 573 l0 238 -26 10 c-37 14 -139 12 -152 -3 -6 -7 -12 -118 -14 -292
-3 -263 -4 -282 -24 -315 -11 -20 -24 -48 -27 -62 -9 -33 -46 -48 -59 -24 -13
23 -26 11 -20 -19 4 -21 -1 -27 -32 -40 -50 -21 -89 -19 -145 9 -59 30 -108
85 -115 128 -3 18 -8 51 -12 73 -3 22 -8 148 -11 280 -5 282 -2 275 -98 275
-47 0 -66 -4 -78 -18z"/>
<path d="M14528 4059 c-17 -9 -18 -41 -18 -448 0 -359 2 -441 14 -450 9 -8
110 -11 352 -9 l339 3 3 56 c4 84 8 83 -249 83 -212 1 -219 2 -241 23 -18 19
-23 36 -25 97 -3 67 -1 77 21 103 l24 28 182 1 181 1 28 27 c18 17 34 24 44
20 13 -5 17 0 17 22 0 22 -3 25 -12 16 -7 -7 -16 -12 -20 -12 -14 0 -50 82
-45 101 5 18 -4 19 -173 19 -170 0 -179 -1 -185 -20 -7 -23 -37 -27 -53 -7
-22 26 -6 183 20 199 2 1 102 5 223 9 121 4 239 10 263 14 l42 7 0 52 0 51
-65 13 c-81 15 -641 16 -667 1z"/>
<path d="M3086 3281 c-8 -12 -9 -1769 -1 -1781 3 -5 22 -17 42 -27 20 -9 38
-25 41 -35 4 -16 17 -18 123 -18 94 0 119 3 119 14 0 29 32 41 106 39 93 -3
104 6 104 89 0 74 17 100 61 91 l29 -5 0 112 0 113 -30 -6 c-41 -9 -59 21 -62
102 -2 52 1 66 16 77 26 18 38 10 126 -85 41 -45 171 -179 288 -298 116 -119
212 -222 212 -229 0 -11 22 -14 94 -14 90 0 95 1 98 22 4 26 46 40 98 32 22
-4 50 0 74 10 37 15 37 16 31 58 -3 24 -7 78 -9 120 -4 68 -8 81 -33 110 -56
66 -154 167 -503 521 -314 319 -388 395 -477 489 -11 13 -124 126 -250 252
-125 125 -234 235 -241 242 -15 16 -48 19 -56 5z"/>
<path d="M8107 2421 c-4 -17 -18 -19 -170 -22 -119 -3 -170 -8 -179 -17 -10
-10 -14 -108 -16 -449 -1 -256 1 -440 7 -446 5 -5 34 -6 65 -2 l56 7 0 87 c0
61 -4 93 -15 107 -17 22 -20 70 -4 80 6 3 73 6 149 7 134 0 140 -1 172 -25 18
-14 44 -44 58 -67 42 -70 149 -199 170 -206 24 -7 40 1 40 20 0 18 -25 54
-143 212 l-39 52 18 31 c10 16 27 33 39 36 29 10 86 74 115 130 36 72 34 178
-4 254 -30 60 -106 140 -134 140 -9 0 -32 9 -50 20 -27 17 -31 24 -26 45 6 24
5 25 -49 25 -45 0 -56 -3 -60 -19z m156 -141 c27 -17 61 -51 78 -78 29 -45 30
-51 27 -133 -4 -82 -6 -88 -42 -132 -38 -47 -72 -60 -82 -33 -3 8 -12 12 -20
9 -10 -4 -11 -10 -4 -24 8 -15 5 -22 -14 -34 -33 -22 -320 -34 -354 -16 -30
16 -31 83 -1 104 20 14 21 23 18 174 l-3 158 134 3 c106 2 136 6 143 17 13 24
68 17 120 -15z"/>
<path d="M14702 2416 c3 -26 -17 -56 -38 -56 -8 0 -35 -19 -59 -41 -35 -32
-49 -56 -64 -104 -20 -63 -20 -63 1 -122 23 -65 79 -124 138 -144 52 -17 72
-38 65 -68 -5 -23 -2 -26 24 -28 22 -2 32 3 36 17 8 26 25 30 81 15 165 -44
241 -132 199 -230 -25 -61 -34 -68 -61 -50 -13 9 -24 11 -24 5 0 -5 -9 -10
-20 -10 -14 0 -20 -7 -20 -23 0 -40 -18 -47 -118 -47 -107 0 -137 10 -128 45
5 19 1 23 -24 27 -18 3 -31 0 -34 -9 -8 -19 -34 -16 -63 7 -30 23 -68 26 -76
6 -9 -24 29 -74 62 -81 17 -4 38 -14 47 -22 22 -23 69 -28 240 -28 170 1 168
0 260 95 49 50 61 95 51 183 -5 40 -14 58 -43 88 -20 21 -50 43 -65 50 -16 6
-29 15 -29 20 0 8 -61 27 -132 43 -23 5 -28 12 -28 36 0 27 -3 30 -30 30 -18
0 -33 -6 -36 -15 -8 -21 -56 -19 -85 4 -13 10 -34 21 -47 25 -28 9 -70 64 -77
102 -8 44 8 87 38 102 15 7 27 19 27 26 0 38 91 65 104 31 4 -12 25 -15 95
-15 70 0 90 3 95 15 8 22 59 19 90 -6 36 -28 60 -22 64 19 3 27 -1 33 -25 42
-63 22 -78 35 -75 63 3 21 -1 27 -16 27 -11 0 -22 -9 -25 -20 -5 -18 -14 -20
-100 -20 -104 0 -127 5 -127 26 0 8 -10 14 -26 14 -21 0 -25 -4 -22 -24z"/>
<path d="M7070 2389 c-25 -9 -63 -78 -145 -264 -28 -65 -38 -85 -115 -250 -28
-60 -62 -132 -75 -160 -12 -27 -39 -87 -60 -133 -36 -78 -37 -84 -22 -100 31
-31 65 3 116 118 32 69 54 106 71 116 37 20 459 20 499 0 19 -10 37 -37 61
-88 18 -40 40 -88 48 -106 19 -42 54 -61 77 -42 11 9 14 22 10 39 -6 26 -54
132 -82 181 -8 14 -21 41 -29 60 -8 19 -19 43 -24 52 -5 10 -42 91 -81 180
-78 180 -105 241 -125 278 -7 14 -24 49 -38 78 -26 54 -37 59 -86 41z m64
-169 c14 -27 26 -57 26 -65 0 -8 14 -34 30 -57 17 -22 30 -47 30 -53 0 -7 20
-56 45 -109 25 -54 45 -106 45 -117 0 -32 -41 -39 -215 -39 -90 0 -175 4 -189
10 -36 13 -34 47 9 137 19 41 35 77 35 81 0 4 11 29 24 57 13 27 40 85 60 128
44 95 62 100 100 27z"/>
<path d="M8958 2388 c-3 -8 -25 -20 -48 -28 -91 -30 -203 -141 -241 -239 -16
-42 -20 -46 -48 -43 -29 2 -31 0 -31 -33 0 -22 8 -43 20 -55 16 -16 20 -33 20
-85 0 -54 -3 -67 -20 -77 -11 -7 -20 -21 -20 -30 0 -21 4 -22 30 -5 23 14 35
3 46 -43 17 -67 165 -230 209 -230 7 0 20 -6 27 -13 36 -35 256 -50 353 -23
64 17 128 54 156 90 24 31 20 38 -33 56 -21 6 -38 16 -38 21 0 5 -4 9 -10 9
-5 0 -10 -16 -10 -35 0 -24 -6 -37 -19 -45 -28 -15 -61 -12 -67 5 -4 8 -16 15
-29 15 -18 0 -21 -4 -17 -25 3 -20 -1 -27 -24 -36 -37 -14 -131 -5 -153 15
-10 9 -32 16 -49 16 -18 0 -42 10 -60 25 -17 14 -34 25 -39 25 -18 0 -90 86
-118 140 -27 51 -29 63 -30 170 0 107 2 119 29 173 33 69 109 149 131 141 8
-4 15 -10 15 -15 0 -5 7 -9 15 -9 11 0 13 8 8 30 -5 28 -2 31 42 51 49 22 95
19 95 -5 0 -10 18 -15 65 -18 54 -2 65 0 69 15 7 29 64 21 126 -18 61 -40 80
-43 103 -17 16 17 15 20 -13 47 -17 16 -30 37 -30 47 0 15 -3 17 -19 8 -21
-11 -70 2 -83 23 -4 7 -60 12 -156 15 -122 4 -150 2 -154 -10z"/>
<path d="M11081 2391 c-10 -6 -11 -22 -6 -60 l7 -51 114 0 c103 0 114 2 124
20 13 24 33 26 54 4 14 -14 16 -63 14 -408 -1 -215 2 -397 6 -404 4 -7 30 -12
62 -12 l54 0 0 400 0 400 135 0 136 0 -3 58 -3 57 -340 2 c-188 1 -347 -2
-354 -6z"/>
<path d="M11970 2380 c-19 -19 -20 -33 -20 -449 0 -377 2 -431 16 -445 13 -14
55 -16 307 -16 253 0 296 2 315 16 l23 16 -22 16 c-18 13 -59 15 -265 13
l-244 -2 -25 25 c-24 25 -25 28 -25 175 0 138 2 151 19 161 34 18 60 12 67
-15 l6 -25 188 0 187 0 7 53 c3 28 6 67 6 85 l0 32 -198 0 c-186 0 -198 -1
-210 -20 -15 -24 -35 -26 -56 -4 -13 12 -16 41 -16 154 0 113 3 142 16 154 21
22 51 20 64 -4 10 -19 21 -20 229 -20 l219 0 4 48 c3 26 0 53 -5 60 -7 9 -77
12 -288 12 -266 0 -280 -1 -299 -20z"/>
<path d="M13165 2393 c-16 -3 -38 -11 -49 -19 -27 -19 -75 -18 -82 1 -10 24
-27 17 -20 -8 6 -27 -4 -42 -55 -80 -46 -33 -99 -106 -128 -177 -17 -40 -25
-82 -28 -158 -5 -93 -3 -109 21 -175 54 -148 165 -252 311 -293 94 -26 300
-14 345 20 8 7 32 19 52 28 48 22 76 62 58 83 -22 26 -72 19 -102 -15 -29 -33
-84 -42 -94 -15 -4 8 -15 15 -25 15 -22 0 -24 -11 -7 -28 23 -23 -9 -37 -87
-37 -84 0 -108 12 -87 45 10 17 10 20 -7 20 -10 0 -21 -7 -25 -15 -9 -24 -50
-17 -92 14 -81 61 -107 86 -121 116 -8 16 -24 46 -36 65 -19 31 -22 49 -22
150 0 112 1 116 35 180 28 53 40 66 63 68 21 3 27 9 27 26 0 57 178 139 196
91 5 -11 23 -15 70 -15 48 0 66 4 70 15 11 27 71 18 135 -22 52 -32 62 -35 85
-25 14 7 38 12 53 12 25 0 41 15 41 37 0 3 -16 3 -36 0 -54 -9 -88 16 -81 60
4 23 2 33 -8 33 -7 0 -15 -7 -19 -15 -8 -21 -52 -19 -74 3 -15 15 -36 18 -132
19 -63 0 -128 -2 -145 -4z"/>
<path d="M13715 2384 c-11 -11 -12 -20 -5 -34 6 -10 10 -30 10 -44 l0 -26 109
0 c60 0 116 -3 124 -6 10 -3 18 2 22 16 5 15 13 20 28 18 l22 -3 3 -406 c2
-354 4 -408 18 -420 13 -10 20 -10 44 4 15 9 40 17 55 17 l26 0 -3 390 -3 390
133 0 133 0 -3 58 -3 57 -347 2 c-298 1 -350 0 -363 -13z"/>
<path d="M9630 1935 l0 -455 59 0 c47 0 60 4 66 18 3 9 5 97 4 196 -3 164 -1
179 16 192 20 15 45 3 45 -22 0 -24 36 -15 48 11 l12 25 220 0 c134 0 229 -4
241 -10 18 -10 19 -23 19 -199 0 -173 2 -189 19 -205 21 -19 60 -14 62 7 0 7
1 207 1 445 1 291 -2 436 -9 443 -6 6 -21 9 -34 7 -34 -5 -41 -49 -37 -220 1
-82 0 -148 -3 -148 -3 0 -11 11 -17 25 -6 14 -16 25 -22 25 -6 0 -8 -10 -4
-25 l6 -25 -250 0 c-213 0 -251 -2 -256 -15 -7 -18 -42 -20 -52 -3 -5 7 -7 85
-5 173 1 95 -2 171 -8 188 -10 25 -15 27 -66 27 l-55 0 0 -455z"/>
<path d="M10803 2378 c-4 -7 -9 -207 -11 -443 -3 -419 -3 -431 16 -449 16 -14
24 -15 41 -6 12 6 21 16 21 23 0 7 1 203 0 436 0 303 -3 427 -11 437 -14 17
-45 18 -56 2z"/>
</g>
</svg>
