<?xml version="1.0" encoding="UTF-8"?>
<svg width="224px" height="40px" viewBox="0 0 224 40" version="1.1" xmlns="http://www.w3.org/2000/svg" xmlns:xlink="http://www.w3.org/1999/xlink">
    <!-- Generator: Sketch 50.2 (55047) - http://www.bohemiancoding.com/sketch -->
    <title>logo</title>
    <desc>Created with Sketch.</desc>
    <defs></defs>
    <g id="Page-1" stroke="none" stroke-width="1" fill="none" fill-rule="evenodd">
        <g id="logo">
            <g id="Group-12">
                <g>
                    <g id="Group-11" transform="translate(0.000000, 14.939759)">
                        <path d="M-7.10542736e-15,0 L13.3819341,0 C13.6480954,-9.94488023e-16 13.8638618,0.215766386 13.8638618,0.481927711 L13.8638618,11.1081944 L39.7764208,11.1081944 L26.5385966,24.3314222 C26.177142,24.6924782 25.6871435,24.8952839 25.1762513,24.8952839 L13.8638618,24.8952839 L0.561885749,11.5399104 C0.202038877,11.178619 -3.93435536e-15,10.6894689 -3.99680289e-15,10.1795461 L-7.10542736e-15,0 Z" id="Path-2-Copy-2" fill="#003CF3"></path>
                        <polygon id="Path-2-Copy-3" fill="#002DB6" points="13.8624959 11.1073542 20.7261174 11.1073542 13.8624959 24.8982655"></polygon>
                        <path d="M-7.10542736e-15,0 L13.3819341,1.66533454e-16 C13.6480954,1.17640411e-16 13.8638618,0.215766386 13.8638618,0.481927711 L13.8638618,24.8952839 L0.561885749,11.5399104 C0.202038877,11.178619 -6.15480141e-15,10.6894689 -6.21724894e-15,10.1795461 L-7.10542736e-15,0 Z" id="Path-2" fill="#2E61FC"></path>
                    </g>
                    <g id="Group-11-Copy" transform="translate(20.000000, 12.530120) scale(-1, -1) translate(-20.000000, -12.530120) ">
                        <path d="M-7.10542736e-15,0 L13.3819341,0 C13.6480954,-9.94488023e-16 13.8638618,0.215766386 13.8638618,0.481927711 L13.8638618,11.1081944 L39.7764208,11.1081944 L26.5385966,24.3314222 C26.177142,24.6924782 25.6871435,24.8952839 25.1762513,24.8952839 L13.8638618,24.8952839 L0.561885749,11.5399104 C0.202038877,11.178619 -3.93435536e-15,10.6894689 -3.99680289e-15,10.1795461 L-7.10542736e-15,0 Z" id="Path-2-Copy-2" fill="#E6ECEC"></path>
                        <polygon id="Path-2-Copy-3" fill="#949B9D" points="13.8626141 11.1062879 20.7352898 11.1062879 13.8626141 24.8960843"></polygon>
                        <path d="M-7.10542736e-15,0 L13.3819341,1.66533454e-16 C13.6480954,1.17640411e-16 13.8638618,0.215766386 13.8638618,0.481927711 L13.8638618,24.8952839 L0.561885749,11.5399104 C0.202038877,11.178619 -6.15480141e-15,10.6894689 -6.21724894e-15,10.1795461 L-7.10542736e-15,0 Z" id="Path-2" fill="#BFC4C6"></path>
                    </g>
                </g>
            </g>
            <text id="3dRenderVision" font-family="Rubik-Regular, Rubik" font-size="24" font-weight="normal" fill="#949596">
                <tspan x="50" y="28">3dRenderVision</tspan>
            </text>
        </g>
    </g>
</svg>